<svg xmlns="http://www.w3.org/2000/svg" viewBox="0 0 100 100">
  <defs>
    <linearGradient id="bg" x1="0%" y1="0%" x2="100%" y2="100%">
      <stop offset="0%" style="stop-color:#00B14F"/>
      <stop offset="100%" style="stop-color:#00963F"/>
    </linearGradient>
  </defs>
  <rect width="100" height="100" rx="20" fill="url(#bg)"/>
  <g fill="white">
    <!-- Car body -->
    <path d="M20 65 L20 55 Q20 50 25 50 L30 50 L35 40 Q38 35 45 35 L65 35 Q72 35 75 40 L80 50 L85 50 Q90 50 90 55 L90 65 Q90 70 85 70 L80 70 L80 75 Q80 80 75 80 L70 80 Q65 80 65 75 L65 70 L45 70 L45 75 Q45 80 40 80 L35 80 Q30 80 30 75 L30 70 L25 70 Q20 70 20 65 Z"/>
    <!-- Windows -->
    <path d="M38 45 L42 38 L60 38 L60 45 Z" fill="#00B14F" opacity="0.3"/>
    <path d="M64 45 L64 38 L72 38 L76 45 Z" fill="#00B14F" opacity="0.3"/>
    <!-- Wheels -->
    <circle cx="35" cy="75" r="8" fill="#333"/>
    <circle cx="75" cy="75" r="8" fill="#333"/>
    <circle cx="35" cy="75" r="4" fill="#666"/>
    <circle cx="75" cy="75" r="4" fill="#666"/>
    <!-- Lightning bolt for speed -->
    <path d="M55 25 L60 15 L50 15 L55 5 L45 5 L50 25 Z" fill="#FFD700"/>
  </g>
</svg>
